<svg width="1920" height="1080" viewBox="0 0 1920 1080" fill="none" xmlns="http://www.w3.org/2000/svg">
<g clip-path="url(#clip0_10_6)">
<rect width="1920" height="1080" fill="#88D4FE"/>
<path d="M-78 814.056C-77.2354 804.116 -72.8151 794.772 -70.4853 785.161C-67.3183 772.097 -66.8307 759.228 -66.5692 745.894C-66.3094 732.642 -57.1198 722.363 -48.8938 712.766C-33.6289 694.957 -13.0633 674.262 10.5886 668.631C28.6737 664.325 47.4307 665.603 65.7315 667.361C89.9193 669.684 113.468 672.467 136.221 681.543C158.16 690.294 176.774 702.154 194.328 717.847C213.148 734.671 228.602 754.67 251.164 766.957C280.41 782.883 312.357 780.031 341.764 766.004C378.911 748.286 401.076 713.422 424.955 681.543C442.037 658.737 460.951 636.059 488.141 625.13C525.39 610.158 569.059 625.896 604.989 637.408C653.337 652.898 701.552 669.609 742.688 700.171C786.006 732.354 816.431 778.637 859.536 810.669C884.545 829.254 914.288 825.681 942.409 816.172C1002.23 795.944 1048.19 747.545 1096.83 709.591C1133.42 681.041 1174.46 646.613 1218.76 630.528C1234.18 624.928 1245.68 627.377 1260.46 633.174C1317.65 655.6 1379.24 679.121 1441.02 683.66C1463 685.275 1488.92 683.83 1509.71 675.722C1524.14 670.098 1537.18 661.737 1553.11 667.996C1569.83 674.565 1582.86 688.889 1600 694.667C1616.26 700.152 1635.11 691.737 1650.38 687.259C1665.59 682.796 1682.53 679.949 1697.05 687.894C1715.45 697.963 1731.3 710.154 1752.51 713.825C1762.3 715.518 1769.07 712.773 1778.44 711.602C1796.3 709.37 1808.13 719.038 1820.99 730.23C1866.33 769.674 1917.81 715.306 1965.04 709.909C1977.94 708.434 1977.69 714.042 1983.35 722.821C1984.52 724.635 1996.27 709.691 1998.59 707.368" stroke="white" stroke-width="105" stroke-linecap="round"/>
<path d="M-78 908.056C-77.2354 898.116 -72.8151 888.772 -70.4853 879.161C-67.3183 866.097 -66.8307 853.228 -66.5692 839.894C-66.3094 826.642 -57.1198 816.363 -48.8938 806.766C-33.6289 788.957 -13.0633 768.262 10.5886 762.631C28.6737 758.325 47.4307 759.603 65.7315 761.361C89.9193 763.684 113.468 766.467 136.221 775.543C158.16 784.294 176.774 796.154 194.328 811.847C213.148 828.671 228.602 848.67 251.164 860.957C280.41 876.883 312.357 874.031 341.764 860.004C378.911 842.286 401.076 807.422 424.955 775.543C442.037 752.737 460.951 730.059 488.141 719.13C525.39 704.158 569.059 719.896 604.989 731.408C653.337 746.898 701.552 763.609 742.688 794.171C786.006 826.354 816.431 872.637 859.536 904.669C884.545 923.254 914.288 919.681 942.409 910.172C1002.23 889.944 1048.19 841.545 1096.83 803.591C1133.42 775.041 1174.46 740.613 1218.76 724.528C1234.18 718.928 1245.68 721.377 1260.46 727.174C1317.65 749.6 1379.24 773.121 1441.02 777.66C1463 779.275 1488.92 777.83 1509.71 769.722C1524.14 764.098 1537.18 755.737 1553.11 761.996C1569.83 768.565 1582.86 782.889 1600 788.667C1616.26 794.152 1635.11 785.737 1650.38 781.259C1665.59 776.796 1682.53 773.949 1697.05 781.894C1715.45 791.963 1731.3 804.154 1752.51 807.825C1762.3 809.518 1769.07 806.773 1778.44 805.602C1796.3 803.37 1808.13 813.038 1820.99 824.23C1866.33 863.674 1917.81 809.306 1965.04 803.909C1977.94 802.434 1977.69 808.042 1983.35 816.821C1984.52 818.635 1996.27 803.691 1998.59 801.368" stroke="white" stroke-width="105" stroke-linecap="round"/>
<path d="M-118.713 213.611C-131.089 201.739 -136.736 189.151 -141.841 174.586C-138.784 174.992 -130.902 173.148 -130.312 171.081C-124.959 152.345 -116.822 129.65 -106.7 113.086C-101.055 103.849 -92.3035 95.2207 -89.025 84.9169C-79.9872 56.5124 -97.4019 28.3628 -104.214 1.51437C-107.136 -10.0003 -103.597 -30.4843 -96.4815 -40.1869C-87.5636 -52.3477 -74.9787 -59.8789 -62.9272 -68.6321C-35.592 -88.4861 -11.0325 -111.122 11.7761 -136.017C33.7188 -159.967 51.151 -178.477 81.3702 -192.631C148.355 -224.006 221.771 -248.887 294.848 -260.845C339.771 -268.196 384.348 -270.853 427.96 -284.871C463.942 -296.437 497.919 -307.197 535.803 -311.797C669.278 -328.005 804.621 -315.242 937.819 -302.681L942.184 -302.27C1047.56 -292.336 1158.45 -274.893 1263.64 -296.194C1336.43 -310.933 1397.03 -357.534 1469.11 -372.968C1526.32 -385.219 1582.9 -373.845 1636.33 -352.394C1719.19 -319.129 1799 -273.385 1868.45 -217.21C1906.76 -186.226 1936.33 -151.632 1959.03 -107.848C1986.94 -54.0133 2010.54 5.45856 2027.52 63.652C2040.46 107.998 2047.53 155.099 2043.95 201.321C2041.7 230.469 2034.62 252.312 2008.19 264.978C1995.67 270.977 1985.03 279.031 1973.12 285.691C1966.86 289.189 1951.14 281.849 1945.36 280.719C1921.94 276.143 1899.61 275.813 1878.11 286.933C1863.17 294.664 1848.06 302.824 1831.44 306.403C1802.63 312.61 1768.68 301.346 1745.28 322.697C1730.97 335.752 1715.2 337.174 1696.95 330.706C1679.17 324.405 1662.32 307.463 1643.51 305.16C1623.29 302.684 1603.49 314.673 1581.93 311.512C1556.38 307.769 1538.98 292.698 1516.89 281.548C1484.21 265.053 1465.08 346.861 1423.82 318.554C1403.55 304.651 1391 297.732 1364.72 298.394C1322.62 299.454 1281.13 308.336 1238.93 308.336C1206 308.336 1184.06 297.495 1155.11 284.31C1125.03 270.613 1096.3 268.279 1063.7 272.435C1044.48 274.883 1025.55 278.937 1006.53 282.515C999.64 283.811 989.762 286.638 982.504 284.31C975.91 282.195 972.26 270.359 967.591 265.806C947.551 246.267 917.107 255.375 893.854 262.631C852.382 275.572 808.125 293.561 764.194 281.824C744.59 276.587 724.237 256.065 704.404 254.898C682.745 253.624 656.882 263.59 637.019 270.501C594.095 285.438 543.301 335.702 494.931 325.459C465.706 319.27 445.952 294.354 417.466 288.176C377.263 279.457 347.989 285.481 309.899 299.085C270.635 313.107 227.953 312.724 187.695 323.525C147.353 334.349 111.785 340.759 69.6331 337.748C49.1055 336.282 29.813 321.648 13.4331 311.098C-32.0482 281.805 -79.5017 251.226 -118.713 213.611Z" fill="white"/>
<path d="M-118.713 156.611C-131.089 144.739 -136.736 132.151 -141.841 117.586C-138.784 117.992 -130.902 116.148 -130.312 114.081C-124.959 95.3454 -116.822 72.6498 -106.7 56.086C-101.055 46.8487 -92.3035 38.2207 -89.025 27.9169C-79.9872 -0.48761 -97.4019 -28.6372 -104.214 -55.4856C-107.136 -67.0003 -103.597 -87.4843 -96.4815 -97.1869C-87.5636 -109.348 -74.9787 -116.879 -62.9272 -125.632C-35.592 -145.486 -11.0325 -168.122 11.7761 -193.017C33.7188 -216.967 51.151 -235.477 81.3702 -249.631C148.355 -281.006 221.771 -305.887 294.848 -317.845C339.771 -325.196 384.348 -327.853 427.96 -341.871C463.942 -353.437 497.919 -364.197 535.803 -368.797C669.278 -385.005 804.621 -372.242 937.819 -359.681L942.184 -359.27C1047.56 -349.336 1158.45 -331.893 1263.64 -353.194C1336.43 -367.933 1397.03 -414.534 1469.11 -429.968C1526.32 -442.219 1582.9 -430.845 1636.33 -409.394C1719.19 -376.129 1799 -330.385 1868.45 -274.21C1906.76 -243.226 1936.33 -208.632 1959.03 -164.848C1986.94 -111.013 2010.54 -51.5414 2027.52 6.65201C2040.46 50.9981 2047.53 98.0991 2043.95 144.321C2041.7 173.469 2034.62 195.312 2008.19 207.978C1995.67 213.977 1985.03 222.031 1973.12 228.691C1966.86 232.189 1951.14 224.849 1945.36 223.719C1921.94 219.143 1899.61 218.813 1878.11 229.933C1863.17 237.664 1848.06 245.824 1831.44 249.403C1802.63 255.61 1768.68 244.346 1745.28 265.697C1730.97 278.752 1715.2 280.174 1696.95 273.706C1679.17 267.405 1662.32 250.463 1643.51 248.16C1623.29 245.684 1603.49 257.673 1581.93 254.512C1556.38 250.769 1538.98 235.698 1516.89 224.548C1484.21 208.053 1465.08 289.861 1423.82 261.554C1403.55 247.651 1391 240.732 1364.72 241.394C1322.62 242.454 1281.13 251.336 1238.93 251.336C1206 251.336 1184.06 240.495 1155.11 227.31C1125.03 213.613 1096.3 211.279 1063.7 215.435C1044.48 217.883 1025.55 221.937 1006.53 225.515C999.64 226.811 989.762 229.638 982.504 227.31C975.91 225.195 972.26 213.359 967.591 208.806C947.551 189.267 917.107 198.375 893.854 205.631C852.382 218.572 808.125 236.561 764.194 224.824C744.59 219.587 724.237 199.065 704.404 197.898C682.745 196.624 656.882 206.59 637.019 213.501C594.095 228.438 543.301 278.702 494.931 268.459C465.706 262.27 445.952 237.354 417.466 231.176C377.263 222.457 347.989 228.481 309.899 242.085C270.635 256.107 227.953 255.724 187.695 266.525C147.353 277.349 111.785 283.759 69.6331 280.748C49.1055 279.282 29.813 264.648 13.4331 254.098C-32.0482 224.805 -79.5017 194.226 -118.713 156.611Z" fill="#FF629B"/>
<path d="M-145.087 108.005C-138.836 126.76 -133.723 142.212 -118.713 156.611C-79.5017 194.226 -32.0482 224.805 13.4331 254.098C29.813 264.648 49.1055 279.282 69.6331 280.748C111.785 283.759 147.353 277.349 187.695 266.525C227.953 255.724 270.635 256.107 309.899 242.085C347.989 228.481 377.263 222.457 417.466 231.176C445.952 237.354 465.706 262.27 494.931 268.459C543.301 278.702 594.095 228.438 637.019 213.501C656.882 206.59 682.745 196.624 704.404 197.898C724.237 199.065 744.59 219.587 764.194 224.824C808.125 236.561 852.382 218.572 893.854 205.631C917.107 198.375 947.551 189.267 967.591 208.806C972.26 213.359 975.91 225.195 982.504 227.31C989.762 229.638 999.64 226.811 1006.53 225.515C1025.55 221.937 1044.48 217.883 1063.7 215.435C1096.3 211.279 1125.03 213.613 1155.11 227.31C1184.06 240.495 1206 251.336 1238.93 251.336C1281.13 251.336 1322.62 242.454 1364.72 241.394C1391 240.732 1403.55 247.651 1423.82 261.554C1465.08 289.861 1484.21 208.053 1516.89 224.548C1538.98 235.698 1556.38 250.769 1581.93 254.512C1603.49 257.673 1623.29 245.684 1643.51 248.16C1662.32 250.463 1679.17 267.405 1696.95 273.706C1715.2 280.174 1730.97 278.752 1745.28 265.697C1768.68 244.346 1802.63 255.61 1831.44 249.403C1848.06 245.824 1863.17 237.664 1878.11 229.933C1899.61 218.813 1921.94 219.143 1945.36 223.719C1951.14 224.849 1966.86 232.189 1973.12 228.691C1985.03 222.031 1995.67 213.977 2008.19 207.978C2034.62 195.312 2041.7 173.469 2043.95 144.321C2047.53 98.0991 2040.46 50.9981 2027.52 6.65201C2010.54 -51.5414 1986.94 -111.013 1959.03 -164.848C1936.33 -208.632 1906.76 -243.226 1868.45 -274.21C1799 -330.385 1719.19 -376.129 1636.33 -409.394C1582.9 -430.845 1526.32 -442.219 1469.11 -429.968C1397.03 -414.534 1336.43 -367.933 1263.64 -353.194C1158.45 -331.893 1047.56 -349.336 942.184 -359.27C807.578 -371.96 670.737 -385.182 535.803 -368.797C497.919 -364.197 463.942 -353.437 427.96 -341.871C384.348 -327.853 339.771 -325.196 294.848 -317.845C221.771 -305.887 148.355 -281.006 81.3702 -249.631C51.151 -235.477 33.7188 -216.967 11.7761 -193.017C-11.0325 -168.122 -35.592 -145.486 -62.9272 -125.632C-74.9787 -116.879 -87.5636 -109.348 -96.4815 -97.1869C-103.597 -87.4843 -107.136 -67.0003 -104.214 -55.4856C-97.4019 -28.6372 -79.9872 -0.487604 -89.025 27.9169C-92.3035 38.2207 -101.055 46.8487 -106.7 56.086C-116.822 72.6498 -124.959 95.3454 -130.312 114.081C-130.961 116.354 -140.433 118.359 -142.601 117.395C-149.107 114.504 -154.178 116.552 -160 120.433" stroke="#E16771" stroke-width="3" stroke-linecap="round"/>
<path d="M-78 862.056C-77.2354 852.116 -72.8151 842.772 -70.4853 833.161C-67.3183 820.097 -66.8307 807.228 -66.5692 793.894C-66.3094 780.642 -57.1198 770.363 -48.8938 760.766C-33.6289 742.957 -13.0633 722.262 10.5886 716.631C28.6737 712.325 47.4307 713.603 65.7315 715.361C89.9193 717.684 113.468 720.467 136.221 729.543C158.16 738.294 176.774 750.154 194.328 765.847C213.148 782.671 228.602 802.67 251.164 814.957C280.41 830.883 312.357 828.031 341.764 814.004C378.911 796.286 401.076 761.422 424.955 729.543C442.037 706.737 460.951 684.059 488.141 673.13C525.39 658.158 569.059 673.896 604.989 685.408C653.337 700.898 701.552 717.609 742.688 748.171C786.006 780.354 816.431 826.637 859.536 858.669C884.545 877.254 914.288 873.681 942.409 864.172C1002.23 843.944 1048.19 795.545 1096.83 757.591C1133.42 729.041 1174.46 694.613 1218.76 678.528C1234.18 672.928 1245.68 675.377 1260.46 681.174C1317.65 703.6 1379.24 727.121 1441.02 731.66C1463 733.275 1488.92 731.83 1509.71 723.722C1524.14 718.098 1537.18 709.737 1553.11 715.996C1569.83 722.565 1582.86 736.889 1600 742.667C1616.26 748.152 1635.11 739.737 1650.38 735.259C1665.59 730.796 1682.53 727.949 1697.05 735.894C1715.45 745.963 1731.3 758.154 1752.51 761.825C1762.3 763.518 1769.07 760.773 1778.44 759.602C1796.3 757.37 1808.13 767.038 1820.99 778.23C1866.33 817.674 1917.81 763.306 1965.04 757.909C1977.94 756.434 1977.69 762.042 1983.35 770.821C1984.52 772.635 1996.27 757.691 1998.59 755.368" stroke="#FF629B" stroke-width="105" stroke-linecap="round"/>
</g>
<defs>
<clipPath id="clip0_10_6">
<rect width="1920" height="1080" fill="white"/>
</clipPath>
</defs>
</svg>
