<svg width="1920" height="1080" viewBox="0 0 1920 1080" fill="none" xmlns="http://www.w3.org/2000/svg">
<g clip-path="url(#clip0_23_26)">
<rect width="1920" height="1080" fill="#88D4FE"/>
<path d="M-78 814.056C-77.2354 804.116 -72.8151 794.772 -70.4853 785.161C-67.3183 772.097 -66.8307 759.228 -66.5692 745.894C-66.3094 732.642 -57.1198 722.363 -48.8938 712.766C-33.6289 694.957 -13.0633 674.262 10.5886 668.631C28.6737 664.325 47.4307 665.603 65.7315 667.361C89.9193 669.684 113.468 672.467 136.221 681.543C158.16 690.294 176.774 702.154 194.328 717.847C213.148 734.671 228.602 754.67 251.164 766.957C280.41 782.883 312.357 780.031 341.764 766.004C378.911 748.286 401.076 713.422 424.955 681.543C442.037 658.737 460.951 636.059 488.141 625.13C525.39 610.158 569.059 625.896 604.989 637.408C653.337 652.898 701.552 669.609 742.688 700.171C786.006 732.354 816.431 778.637 859.536 810.669C884.545 829.254 914.288 825.681 942.409 816.172C1002.23 795.944 1048.19 747.545 1096.83 709.591C1133.42 681.041 1174.46 646.613 1218.76 630.528C1234.18 624.928 1245.68 627.377 1260.46 633.174C1317.65 655.6 1379.24 679.121 1441.02 683.66C1463 685.275 1488.92 683.83 1509.71 675.722C1524.14 670.098 1537.18 661.737 1553.11 667.996C1569.83 674.565 1582.86 688.889 1600 694.667C1616.26 700.152 1635.11 691.737 1650.38 687.259C1665.59 682.796 1682.53 679.949 1697.05 687.894C1715.45 697.963 1731.3 710.154 1752.51 713.825C1762.3 715.518 1769.07 712.773 1778.44 711.602C1796.3 709.37 1808.13 719.038 1820.99 730.23C1866.33 769.674 1917.81 715.306 1965.04 709.909C1977.94 708.434 1977.69 714.042 1983.35 722.821C1984.52 724.635 1996.27 709.691 1998.59 707.368" stroke="white" stroke-width="105" stroke-linecap="round"/>
<path d="M-78 908.056C-77.2354 898.116 -72.8151 888.772 -70.4853 879.161C-67.3183 866.097 -66.8307 853.228 -66.5692 839.894C-66.3094 826.642 -57.1198 816.363 -48.8938 806.766C-33.6289 788.957 -13.0633 768.262 10.5886 762.631C28.6737 758.325 47.4307 759.603 65.7315 761.361C89.9193 763.684 113.468 766.467 136.221 775.543C158.16 784.294 176.774 796.154 194.328 811.847C213.148 828.671 228.602 848.67 251.164 860.957C280.41 876.883 312.357 874.031 341.764 860.004C378.911 842.286 401.076 807.422 424.955 775.543C442.037 752.737 460.951 730.059 488.141 719.13C525.39 704.158 569.059 719.896 604.989 731.408C653.337 746.898 701.552 763.609 742.688 794.171C786.006 826.354 816.431 872.637 859.536 904.669C884.545 923.254 914.288 919.681 942.409 910.172C1002.23 889.944 1048.19 841.545 1096.83 803.591C1133.42 775.041 1174.46 740.613 1218.76 724.528C1234.18 718.928 1245.68 721.377 1260.46 727.174C1317.65 749.6 1379.24 773.121 1441.02 777.66C1463 779.275 1488.92 777.83 1509.71 769.722C1524.14 764.098 1537.18 755.737 1553.11 761.996C1569.83 768.565 1582.86 782.889 1600 788.667C1616.26 794.152 1635.11 785.737 1650.38 781.259C1665.59 776.796 1682.53 773.949 1697.05 781.894C1715.45 791.963 1731.3 804.154 1752.51 807.825C1762.3 809.518 1769.07 806.773 1778.44 805.602C1796.3 803.37 1808.13 813.038 1820.99 824.23C1866.33 863.674 1917.81 809.306 1965.04 803.909C1977.94 802.434 1977.69 808.042 1983.35 816.821C1984.52 818.635 1996.27 803.691 1998.59 801.368" stroke="white" stroke-width="105" stroke-linecap="round"/>
<path d="M-78 862.056C-77.2354 852.116 -72.8151 842.772 -70.4853 833.161C-67.3183 820.097 -66.8307 807.228 -66.5692 793.894C-66.3094 780.642 -57.1198 770.363 -48.8938 760.766C-33.6289 742.957 -13.0633 722.262 10.5886 716.631C28.6737 712.325 47.4307 713.603 65.7315 715.361C89.9193 717.684 113.468 720.467 136.221 729.543C158.16 738.294 176.774 750.154 194.328 765.847C213.148 782.671 228.602 802.67 251.164 814.957C280.41 830.883 312.357 828.031 341.764 814.004C378.911 796.286 401.076 761.422 424.955 729.543C442.037 706.737 460.951 684.059 488.141 673.13C525.39 658.158 569.059 673.896 604.989 685.408C653.337 700.898 701.552 717.609 742.688 748.171C786.006 780.354 816.431 826.637 859.536 858.669C884.545 877.254 914.288 873.681 942.409 864.172C1002.23 843.944 1048.19 795.545 1096.83 757.591C1133.42 729.041 1174.46 694.613 1218.76 678.528C1234.18 672.928 1245.68 675.377 1260.46 681.174C1317.65 703.6 1379.24 727.121 1441.02 731.66C1463 733.275 1488.92 731.83 1509.71 723.722C1524.14 718.098 1537.18 709.737 1553.11 715.996C1569.83 722.565 1582.86 736.889 1600 742.667C1616.26 748.152 1635.11 739.737 1650.38 735.259C1665.59 730.796 1682.53 727.949 1697.05 735.894C1715.45 745.963 1731.3 758.154 1752.51 761.825C1762.3 763.518 1769.07 760.773 1778.44 759.602C1796.3 757.37 1808.13 767.038 1820.99 778.23C1866.33 817.674 1917.81 763.306 1965.04 757.909C1977.94 756.434 1977.69 762.042 1983.35 770.821C1984.52 772.635 1996.27 757.691 1998.59 755.368" stroke="#FF629B" stroke-width="105" stroke-linecap="round"/>
<path d="M-78 400.056C-77.2354 390.116 -72.8151 380.772 -70.4853 371.161C-67.3183 358.097 -66.8307 345.228 -66.5692 331.894C-66.3094 318.642 -57.1198 308.363 -48.8938 298.766C-33.6289 280.957 -13.0633 260.262 10.5886 254.631C28.6737 250.325 47.4307 251.603 65.7315 253.361C89.9193 255.684 113.468 258.467 136.221 267.543C158.16 276.294 176.774 288.154 194.328 303.847C213.148 320.671 228.602 340.67 251.164 352.957C280.41 368.883 312.357 366.031 341.764 352.004C378.911 334.286 401.076 299.422 424.955 267.543C442.037 244.737 460.951 222.059 488.141 211.13C525.39 196.158 569.059 211.896 604.989 223.408C653.337 238.898 701.552 255.609 742.688 286.171C786.006 318.354 816.431 364.637 859.536 396.669C884.545 415.254 914.288 411.681 942.409 402.172C1002.23 381.944 1048.19 333.545 1096.83 295.591C1133.42 267.041 1174.46 232.613 1218.76 216.528C1234.18 210.928 1245.68 213.377 1260.46 219.174C1317.65 241.6 1379.24 265.121 1441.02 269.66C1463 271.275 1488.92 269.83 1509.71 261.722C1524.14 256.098 1537.18 247.737 1553.11 253.996C1569.83 260.565 1582.86 274.889 1600 280.667C1616.26 286.152 1635.11 277.737 1650.38 273.259C1665.59 268.796 1682.53 265.949 1697.05 273.894C1715.45 283.963 1731.3 296.154 1752.51 299.825C1762.3 301.518 1769.07 298.773 1778.44 297.602C1796.3 295.37 1808.13 305.038 1820.99 316.23C1866.33 355.674 1917.81 301.306 1965.04 295.909C1977.94 294.434 1977.69 300.042 1983.35 308.821C1984.52 310.635 1996.27 295.691 1998.59 293.368" stroke="white" stroke-width="105" stroke-linecap="round"/>
<path d="M-78 494.056C-77.2354 484.116 -72.8151 474.772 -70.4853 465.161C-67.3183 452.097 -66.8307 439.228 -66.5692 425.894C-66.3094 412.642 -57.1198 402.363 -48.8938 392.766C-33.6289 374.957 -13.0633 354.262 10.5886 348.631C28.6737 344.325 47.4307 345.603 65.7315 347.361C89.9193 349.684 113.468 352.467 136.221 361.543C158.16 370.294 176.774 382.154 194.328 397.847C213.148 414.671 228.602 434.67 251.164 446.957C280.41 462.883 312.357 460.031 341.764 446.004C378.911 428.286 401.076 393.422 424.955 361.543C442.037 338.737 460.951 316.059 488.141 305.13C525.39 290.158 569.059 305.896 604.989 317.408C653.337 332.898 701.552 349.609 742.688 380.171C786.006 412.354 816.431 458.637 859.536 490.669C884.545 509.254 914.288 505.681 942.409 496.172C1002.23 475.944 1048.19 427.545 1096.83 389.591C1133.42 361.041 1174.46 326.613 1218.76 310.528C1234.18 304.928 1245.68 307.377 1260.46 313.174C1317.65 335.6 1379.24 359.121 1441.02 363.66C1463 365.275 1488.92 363.83 1509.71 355.722C1524.14 350.098 1537.18 341.737 1553.11 347.996C1569.83 354.565 1582.86 368.889 1600 374.667C1616.26 380.152 1635.11 371.737 1650.38 367.259C1665.59 362.796 1682.53 359.949 1697.05 367.894C1715.45 377.963 1731.3 390.154 1752.51 393.825C1762.3 395.518 1769.07 392.773 1778.44 391.602C1796.3 389.37 1808.13 399.038 1820.99 410.23C1866.33 449.674 1917.81 395.306 1965.04 389.909C1977.94 388.434 1977.69 394.042 1983.35 402.821C1984.52 404.635 1996.27 389.691 1998.59 387.368" stroke="white" stroke-width="105" stroke-linecap="round"/>
<path d="M-78 448.056C-77.2354 438.116 -72.8151 428.772 -70.4853 419.161C-67.3183 406.097 -66.8307 393.228 -66.5692 379.894C-66.3094 366.642 -57.1198 356.363 -48.8938 346.766C-33.6289 328.957 -13.0633 308.262 10.5886 302.631C28.6737 298.325 47.4307 299.603 65.7315 301.361C89.9193 303.684 113.468 306.467 136.221 315.543C158.16 324.294 176.774 336.154 194.328 351.847C213.148 368.671 228.602 388.67 251.164 400.957C280.41 416.883 312.357 414.031 341.764 400.004C378.911 382.286 401.076 347.422 424.955 315.543C442.037 292.737 460.951 270.059 488.141 259.13C525.39 244.158 569.059 259.896 604.989 271.408C653.337 286.898 701.552 303.609 742.688 334.171C786.006 366.354 816.431 412.637 859.536 444.669C884.545 463.254 914.288 459.681 942.409 450.172C1002.23 429.944 1048.19 381.545 1096.83 343.591C1133.42 315.041 1174.46 280.613 1218.76 264.528C1234.18 258.928 1245.68 261.377 1260.46 267.174C1317.65 289.6 1379.24 313.121 1441.02 317.66C1463 319.275 1488.92 317.83 1509.71 309.722C1524.14 304.098 1537.18 295.737 1553.11 301.996C1569.83 308.565 1582.86 322.889 1600 328.667C1616.26 334.152 1635.11 325.737 1650.38 321.259C1665.59 316.796 1682.53 313.949 1697.05 321.894C1715.45 331.963 1731.3 344.154 1752.51 347.825C1762.3 349.518 1769.07 346.773 1778.44 345.602C1796.3 343.37 1808.13 353.038 1820.99 364.23C1866.33 403.674 1917.81 349.306 1965.04 343.909C1977.94 342.434 1977.69 348.042 1983.35 356.821C1984.52 358.635 1996.27 343.691 1998.59 341.368" stroke="#FF629B" stroke-width="105" stroke-linecap="round"/>
</g>
<defs>
<clipPath id="clip0_23_26">
<rect width="1920" height="1080" fill="white"/>
</clipPath>
</defs>
</svg>
