<svg width="272" height="272" viewBox="0 0 272 272" fill="none" xmlns="http://www.w3.org/2000/svg">
<circle cx="136" cy="136" r="136" fill="url(#paint0_linear_11_121)"/>
<path d="M202.736 82.3982C202.256 80.9779 201.683 80.6041 200.788 80.2491C198.83 79.5202 195.513 80.6228 195.513 80.6228C195.513 80.6228 78.1051 123.007 71.3976 127.698C69.9534 128.707 69.4695 129.305 69.2294 129.997C68.07 133.323 71.6824 134.799 71.6824 134.799L101.944 144.704C101.944 144.704 103.072 144.872 103.474 144.611C110.358 140.238 172.737 100.694 176.335 99.3669C176.902 99.1987 177.323 99.3856 177.211 99.7781C175.771 104.861 121.592 153.207 121.592 153.207C121.592 153.207 121.385 153.469 121.255 153.768L121.184 153.73L118.361 183.874C118.361 183.874 117.177 193.106 126.373 183.874C132.861 177.352 139.138 171.895 142.28 169.26C152.686 176.474 163.884 184.454 168.717 188.621C171.144 190.714 173.175 191.05 174.846 190.994C179.433 190.826 180.714 185.762 180.714 185.762C180.714 185.762 202.109 99.2922 202.824 87.7056C202.895 86.5656 202.991 85.8555 202.999 85.0706C203.012 83.9867 202.911 82.9028 202.736 82.3982Z" fill="white"/>
<defs>
<linearGradient id="paint0_linear_11_121" x1="136" y1="0" x2="136" y2="272" gradientUnits="userSpaceOnUse">
<stop stop-color="#FF629B"/>
<stop offset="1" stop-color="#BD54CD"/>
</linearGradient>
</defs>
</svg>
