<svg width="272" height="272" viewBox="0 0 272 272" fill="none" xmlns="http://www.w3.org/2000/svg">
<circle cx="136" cy="136" r="136" fill="url(#paint0_linear_11_125)"/>
<path d="M167.732 193.86L132.604 142.822L127.602 135.557L86.8397 76.3331H104.374L137.339 124.229L142.341 131.494L185.267 193.86H167.732ZM192.515 188.875L148.271 124.597L143.269 117.327L111.619 71.3465L108.996 67.536H70.1055L79.5902 81.3185L121.672 142.462L126.674 149.724L160.486 198.851L163.109 202.657H202L192.515 188.875Z" fill="white"/>
<path d="M127.601 135.557L132.604 142.822L126.674 149.724L81.1733 202.657H69.9531L121.671 142.462L127.601 135.557Z" fill="white"/>
<path d="M197.318 67.536L148.271 124.597L142.34 131.494L137.338 124.229L143.269 117.327L176.493 78.6563L186.098 67.536H197.318Z" fill="white"/>
<defs>
<linearGradient id="paint0_linear_11_125" x1="136" y1="0" x2="136" y2="272" gradientUnits="userSpaceOnUse">
<stop stop-color="#FF629B"/>
<stop offset="1" stop-color="#BD54CD"/>
</linearGradient>
</defs>
</svg>
